<svg version="1.1" id="Layer_1" xmlns="http://www.w3.org/2000/svg" xmlns:xlink="http://www.w3.org/1999/xlink" x="0px" y="0px"
	 width="100%" viewBox="0 0 820 859" enable-background="new 0 0 820 859" xml:space="preserve">
<path fill="#FEFEFE" opacity="1.000000" stroke="none" 
	d="
M1.000000,305.000000 
	C1.000000,203.348373 1.000000,102.196747 1.000000,1.022558 
	C274.277679,1.022558 547.555359,1.022558 820.916504,1.022558 
	C820.916504,287.235077 820.916504,573.470215 820.916504,859.852661 
	C547.666748,859.852661 274.333374,859.852661 1.000000,859.852661 
	C1.000000,675.111145 1.000000,490.305573 1.000000,305.000000 
M12.051321,447.492218 
	C12.497248,475.907684 15.797565,503.995605 22.270063,531.660278 
	C70.289970,736.906128 268.807953,869.614807 476.409149,835.195984 
	C557.467896,821.757019 628.049377,786.704041 687.143799,729.765808 
	C759.614990,659.939087 800.548706,574.500427 809.112915,474.046906 
	C815.280640,401.703888 802.605042,332.554382 770.695312,267.336273 
	C695.103027,112.838348 535.429321,25.633238 364.002136,44.902405 
	C305.312408,51.499386 250.339081,69.934059 200.910858,102.151871 
	C76.766052,183.070740 13.768554,298.129089 12.051321,447.492218 
z"/>
<path fill="#37474E" opacity="1.000000" stroke="none" 
	d="
M12.048029,446.993469 
	C13.768554,298.129089 76.766052,183.070740 200.910858,102.151871 
	C250.339081,69.934059 305.312408,51.499386 364.002136,44.902405 
	C535.429321,25.633238 695.103027,112.838348 770.695312,267.336273 
	C802.605042,332.554382 815.280640,401.703888 809.112915,474.046906 
	C800.548706,574.500427 759.614990,659.939087 687.143799,729.765808 
	C628.049377,786.704041 557.467896,821.757019 476.409149,835.195984 
	C268.807953,869.614807 70.289970,736.906128 22.270063,531.660278 
	C15.797565,503.995605 12.497248,475.907684 12.048029,446.993469 
M309.230957,98.949013 
	C307.754333,99.569916 306.277679,100.190826 304.022461,100.805168 
	C289.160736,106.536057 273.924347,111.459457 259.507477,118.149017 
	C215.963562,138.353714 178.249710,166.627991 146.074661,202.304855 
	C126.020691,224.541428 108.955666,248.843201 95.057251,275.343414 
	C80.168221,303.732422 68.712845,333.449768 62.577824,364.967163 
	C59.408604,381.248322 57.561069,397.784851 55.013454,414.190033 
	C54.243481,419.148163 56.252728,420.314392 61.008785,420.292664 
	C99.659416,420.116058 138.311203,420.193481 176.962646,420.193176 
	C211.948868,420.192871 246.935242,420.144806 281.921021,420.266693 
	C285.317322,420.278503 287.046417,419.493622 287.735535,415.944763 
	C288.683685,411.061890 289.921722,406.193176 291.528931,401.486847 
	C310.977234,344.537415 366.276398,309.349609 425.818512,316.084839 
	C454.409210,319.318939 478.904694,331.357513 499.597778,351.239838 
	C512.018616,363.174042 520.930420,377.524963 528.119263,393.544037 
	C528.353638,393.770905 528.588013,393.997803 528.824524,394.907806 
	C529.238159,395.951019 529.651733,396.994263 530.076050,398.559937 
	C530.313782,398.804047 530.551453,399.048157 530.753967,399.692963 
	C530.753967,399.692963 530.933960,400.052734 530.858948,400.699341 
	C531.143433,401.265686 531.427917,401.832001 531.639709,402.738525 
	C531.639709,402.738525 531.824585,403.033264 531.771606,403.719971 
	C532.139587,404.514374 532.507629,405.308746 532.859680,406.594055 
	C532.859680,406.594055 533.034607,407.053040 532.918640,407.868683 
	C533.064392,409.022705 533.093628,410.205933 533.374329,411.326172 
	C535.756836,420.836304 535.770569,420.834686 545.732544,420.831665 
	C617.026428,420.810120 688.320251,420.787781 759.614136,420.765198 
	C760.946716,420.764771 762.279358,420.763275 763.611877,420.753632 
	C766.842529,420.730255 768.082458,418.953705 767.784119,415.915680 
	C767.199951,409.967529 766.659790,404.013428 765.958130,398.078735 
	C762.669739,370.265778 756.201721,343.182098 746.330383,316.995117 
	C732.026306,279.048859 712.017883,244.408798 685.991882,213.169571 
	C656.672485,177.977219 621.955933,149.519531 581.913574,127.436501 
	C560.761902,115.771523 538.617920,106.332642 515.478577,99.539818 
	C501.523163,95.443039 487.134766,92.820999 472.306854,89.259834 
	C471.849396,89.254692 471.391907,89.249550 470.251251,88.960747 
	C469.519257,88.972313 468.787231,88.983879 467.448608,88.809509 
	C467.028107,88.812157 466.607574,88.814804 465.640564,88.272690 
	C457.746552,87.355904 449.852570,86.439117 441.186462,85.246544 
	C440.099548,85.248199 439.012604,85.249863 437.147003,84.986900 
	C435.784058,85.022667 434.421082,85.058434 432.366913,84.937149 
	C431.896820,84.961540 431.426758,84.985924 430.389893,84.480728 
	C428.255432,84.542053 426.120941,84.603378 423.228943,84.359726 
	C422.423920,84.406441 421.618896,84.453148 419.985199,84.115341 
	C407.690552,84.515923 395.395874,84.916504 382.331787,85.185120 
	C381.569916,85.306229 380.808044,85.427345 379.240051,85.236847 
	C374.193604,85.921967 369.147125,86.607079 363.398987,87.209038 
	C362.948273,87.329651 362.497559,87.450264 361.283356,87.270714 
	C354.549835,88.597839 347.816345,89.924957 340.387421,91.170563 
	C339.939972,91.287704 339.492523,91.404846 338.345886,91.277290 
	C336.253754,91.916817 334.161621,92.556335 331.374756,93.128029 
	C330.930664,93.252426 330.486542,93.376831 329.415314,93.266479 
	C328.239716,93.799835 327.064087,94.333199 325.100311,94.840103 
	C324.080414,95.057014 323.060516,95.273918 321.414856,95.262650 
	C320.258209,95.811249 319.101562,96.359856 317.431702,96.892860 
	C317.270538,96.950539 317.109406,97.008209 316.216125,96.930817 
	C314.456665,97.588326 312.697174,98.245834 310.425781,98.898598 
	C310.266144,98.958855 310.106476,99.019112 309.230957,98.949013 
M477.809204,792.135620 
	C478.800842,792.018127 479.808594,791.977173 480.781830,791.772217 
	C570.922729,772.786865 643.833557,726.584229 698.913757,652.757019 
	C735.821106,603.287964 757.660461,547.542419 765.735229,486.398254 
	C766.769043,478.570007 767.253357,470.669159 768.046448,462.224579 
	C759.385742,462.224579 751.593140,462.197479 743.800781,462.229858 
	C723.822815,462.312836 703.844910,462.422272 682.971558,462.305969 
	C635.308594,462.286682 587.645508,462.294495 539.982727,462.188202 
	C536.752930,462.181000 535.508118,463.026489 534.803772,466.415009 
	C523.436035,521.105042 477.411743,562.432373 423.173950,566.881348 
	C365.697357,571.596008 313.914398,539.341248 293.428131,485.811371 
	C290.538666,478.261322 288.707031,470.306427 286.411072,462.623657 
	C209.310471,462.623657 132.243484,462.623657 54.221516,462.623657 
	C55.802864,475.136047 56.834221,487.250732 58.920292,499.181030 
	C76.620743,600.410461 128.102005,680.265991 212.879074,737.954224 
	C279.584106,783.344910 354.025055,802.530457 434.499359,797.679871 
	C448.724091,796.822510 462.825165,793.914001 477.809204,792.135620 
M490.187500,412.355591 
	C475.079193,372.732483 435.290009,350.661987 394.053253,359.031250 
	C350.444061,367.882050 320.597809,411.420319 328.314941,454.927063 
	C336.460663,500.850006 379.037811,531.648010 424.249908,524.321350 
	C476.559875,515.844360 507.520325,463.845398 490.187500,412.355591 
z"/>
<path fill="#FEFEFE" opacity="1.000000" stroke="none" 
	d="
M476.983337,791.952759 
	C462.825165,793.914001 448.724091,796.822510 434.499359,797.679871 
	C354.025055,802.530457 279.584106,783.344910 212.879074,737.954224 
	C128.102005,680.265991 76.620743,600.410461 58.920292,499.181030 
	C56.834221,487.250732 55.802864,475.136047 54.221516,462.623657 
	C132.243484,462.623657 209.310471,462.623657 286.411072,462.623657 
	C288.707031,470.306427 290.538666,478.261322 293.428131,485.811371 
	C313.914398,539.341248 365.697357,571.596008 423.173950,566.881348 
	C477.411743,562.432373 523.436035,521.105042 534.803772,466.415009 
	C535.508118,463.026489 536.752930,462.181000 539.982727,462.188202 
	C587.645508,462.294495 635.308594,462.286682 683.436279,462.827148 
	C683.219971,472.103821 683.212646,480.976257 681.717773,489.590515 
	C678.577332,507.687714 675.274048,525.800049 670.927246,543.635620 
	C661.480286,582.398193 645.220032,618.413147 624.110718,652.137817 
	C604.354614,683.700684 580.676392,712.071472 552.764587,736.908630 
	C532.456360,754.979797 510.821014,771.106445 487.400696,784.883057 
	C483.791016,787.006348 480.449066,789.584778 476.983337,791.952759 
z"/>
<path fill="#FD3C00" opacity="1.000000" stroke="none" 
	d="
M316.948273,97.065872 
	C317.109406,97.008209 317.270538,96.950539 318.043213,96.946823 
	C319.783356,96.497475 320.911987,95.994148 322.040619,95.490829 
	C323.060516,95.273918 324.080414,95.057014 325.852844,94.910477 
	C327.751068,94.487640 328.896759,93.994438 330.042450,93.501236 
	C330.486542,93.376831 330.930664,93.252426 331.961365,93.394310 
	C334.713684,92.947723 336.879364,92.234856 339.045074,91.521988 
	C339.492523,91.404846 339.939972,91.287704 341.008423,91.442436 
	C346.025543,91.096306 350.447876,90.618820 354.807587,89.805603 
	C357.273804,89.345566 359.637146,88.334007 362.046844,87.570877 
	C362.497559,87.450264 362.948273,87.329651 364.055756,87.479767 
	C369.823730,87.016479 374.934967,86.282471 380.046173,85.548454 
	C380.808044,85.427345 381.569916,85.306229 383.038757,85.480957 
	C395.957886,85.433640 408.170044,85.091309 420.381866,84.737564 
	C420.528046,84.733322 420.669952,84.582336 420.813873,84.499863 
	C421.618896,84.453148 422.423920,84.406441 423.753357,84.804466 
	C426.504089,85.169571 428.730377,85.089935 430.956665,85.010300 
	C431.426758,84.985924 431.896820,84.961540 432.932709,85.268654 
	C434.974243,85.483940 436.449951,85.367729 437.925690,85.251511 
	C439.012604,85.249863 440.099548,85.248199 441.721985,85.714706 
	C450.234039,87.061058 458.210571,87.939262 466.187073,88.817459 
	C466.607574,88.814804 467.028107,88.812157 467.904663,89.151703 
	C469.218658,89.410728 470.076538,89.327568 470.934448,89.244408 
	C471.391907,89.249550 471.849396,89.254692 472.739197,89.696365 
	C475.527649,91.273674 477.993042,92.234581 480.220245,93.587608 
	C488.161011,98.411674 495.930420,103.522087 503.929565,108.244820 
	C521.871948,118.838127 538.029907,131.875244 553.144897,145.993042 
	C566.974365,158.910110 579.990845,172.807693 592.396057,187.113937 
	C611.370728,208.996536 627.203369,233.154739 640.431152,258.945221 
	C653.813660,285.037537 664.683533,312.173584 671.593506,340.683990 
	C675.522644,356.895721 678.133118,373.440613 680.954346,389.901154 
	C682.236816,397.383514 682.368042,405.056641 683.436951,412.584259 
	C684.263794,418.407562 684.082947,418.983643 678.173889,418.985138 
	C632.677734,418.996674 587.181519,418.970673 541.685425,419.033142 
	C538.274109,419.037842 535.990784,418.685333 535.750000,414.388611 
	C535.610657,411.900543 533.989136,409.495483 533.034607,407.053040 
	C533.034607,407.053040 532.859680,406.594055 532.921265,405.992676 
	C532.596802,404.605286 532.210693,403.819275 531.824585,403.033264 
	C531.824585,403.033264 531.639709,402.738525 531.753235,402.226746 
	C531.555786,401.160889 531.244873,400.606812 530.933960,400.052734 
	C530.933960,400.052734 530.753967,399.692963 530.773193,399.225037 
	C530.550110,398.517212 530.307739,398.277344 530.065369,398.037476 
	C529.651733,396.994263 529.238159,395.951019 528.816895,394.313904 
	C528.578430,393.493927 528.347656,393.267914 528.116882,393.041870 
	C520.930420,377.524963 512.018616,363.174042 499.597778,351.239838 
	C478.904694,331.357513 454.409210,319.318939 425.818512,316.084839 
	C366.276398,309.349609 310.977234,344.537415 291.528931,401.486847 
	C289.921722,406.193176 288.683685,411.061890 287.735535,415.944763 
	C287.046417,419.493622 285.317322,420.278503 281.921021,420.266693 
	C246.935242,420.144806 211.948868,420.192871 176.962646,420.193176 
	C138.311203,420.193481 99.659416,420.116058 61.008785,420.292664 
	C56.252728,420.314392 54.243481,419.148163 55.013454,414.190033 
	C57.561069,397.784851 59.408604,381.248322 62.577824,364.967163 
	C68.712845,333.449768 80.168221,303.732422 95.057251,275.343414 
	C108.955666,248.843201 126.020691,224.541428 146.074661,202.304855 
	C178.249710,166.627991 215.963562,138.353714 259.507477,118.149017 
	C273.924347,111.459457 289.160736,106.536057 304.777191,100.877716 
	C307.003571,100.326630 308.475189,99.702995 309.946838,99.079369 
	C310.106476,99.019112 310.266144,98.958855 311.058746,98.947678 
	C313.443909,98.353134 315.196075,97.709503 316.948273,97.065872 
z"/>
<path fill="#DA2C02" opacity="1.000000" stroke="none" 
	d="
M532.976624,407.460876 
	C533.989136,409.495483 535.610657,411.900543 535.750000,414.388611 
	C535.990784,418.685333 538.274109,419.037842 541.685425,419.033142 
	C587.181519,418.970673 632.677734,418.996674 678.173889,418.985138 
	C684.082947,418.983643 684.263794,418.407562 683.436951,412.584259 
	C682.368042,405.056641 682.236816,397.383514 680.954346,389.901154 
	C678.133118,373.440613 675.522644,356.895721 671.593506,340.683990 
	C664.683533,312.173584 653.813660,285.037537 640.431152,258.945221 
	C627.203369,233.154739 611.370728,208.996536 592.396057,187.113937 
	C579.990845,172.807693 566.974365,158.910110 553.144897,145.993042 
	C538.029907,131.875244 521.871948,118.838127 503.929565,108.244820 
	C495.930420,103.522087 488.161011,98.411674 480.220245,93.587608 
	C477.993042,92.234581 475.527649,91.273674 473.056213,89.834595 
	C487.134766,92.820999 501.523163,95.443039 515.478577,99.539818 
	C538.617920,106.332642 560.761902,115.771523 581.913574,127.436501 
	C621.955933,149.519531 656.672485,177.977219 685.991882,213.169571 
	C712.017883,244.408798 732.026306,279.048859 746.330383,316.995117 
	C756.201721,343.182098 762.669739,370.265778 765.958130,398.078735 
	C766.659790,404.013428 767.199951,409.967529 767.784119,415.915680 
	C768.082458,418.953705 766.842529,420.730255 763.611877,420.753632 
	C762.279358,420.763275 760.946716,420.764771 759.614136,420.765198 
	C688.320251,420.787781 617.026428,420.810120 545.732544,420.831665 
	C535.770569,420.834686 535.756836,420.836304 533.374329,411.326172 
	C533.093628,410.205933 533.064392,409.022705 532.976624,407.460876 
z"/>
<path fill="#CDD6DB" opacity="1.000000" stroke="none" 
	d="
M477.396240,792.044189 
	C480.449066,789.584778 483.791016,787.006348 487.400696,784.883057 
	C510.821014,771.106445 532.456360,754.979797 552.764587,736.908630 
	C580.676392,712.071472 604.354614,683.700684 624.110718,652.137817 
	C645.220032,618.413147 661.480286,582.398193 670.927246,543.635620 
	C675.274048,525.800049 678.577332,507.687714 681.717773,489.590515 
	C683.212646,480.976257 683.219971,472.103821 683.884033,462.934723 
	C703.844910,462.422272 723.822815,462.312836 743.800781,462.229858 
	C751.593140,462.197479 759.385742,462.224579 768.046448,462.224579 
	C767.253357,470.669159 766.769043,478.570007 765.735229,486.398254 
	C757.660461,547.542419 735.821106,603.287964 698.913757,652.757019 
	C643.833557,726.584229 570.922729,772.786865 480.781830,791.772217 
	C479.808594,791.977173 478.800842,792.018127 477.396240,792.044189 
z"/>
<path fill="#FCFCFD" opacity="1.000000" stroke="none" 
	d="
M490.335846,412.717285 
	C507.520325,463.845398 476.559875,515.844360 424.249908,524.321350 
	C379.037811,531.648010 336.460663,500.850006 328.314941,454.927063 
	C320.597809,411.420319 350.444061,367.882050 394.053253,359.031250 
	C435.290009,350.661987 475.079193,372.732483 490.335846,412.717285 
M417.082977,482.949127 
	C418.873627,482.578186 420.690796,482.303772 422.450836,481.821259 
	C439.125244,477.249664 451.759399,462.282440 453.068451,445.602325 
	C454.533722,426.931763 445.027496,410.354706 428.657227,403.033813 
	C412.390137,395.759064 393.574280,399.307129 381.228668,411.977386 
	C369.115326,424.409302 365.892822,442.851776 373.063324,458.707336 
	C380.543091,475.246704 396.493103,484.243896 417.082977,482.949127 
z"/>
<path fill="#DA2C02" opacity="1.000000" stroke="none" 
	d="
M420.399536,84.307602 
	C420.669952,84.582336 420.528046,84.733322 420.381866,84.737564 
	C408.170044,85.091309 395.957886,85.433640 383.423492,85.546944 
	C395.395874,84.916504 407.690552,84.515923 420.399536,84.307602 
z"/>
<path fill="#DA2C02" opacity="1.000000" stroke="none" 
	d="
M465.913818,88.545074 
	C458.210571,87.939262 450.234039,87.061058 442.108032,85.852600 
	C449.852570,86.439117 457.746552,87.355904 465.913818,88.545074 
z"/>
<path fill="#DA2C02" opacity="1.000000" stroke="none" 
	d="
M361.665100,87.420792 
	C359.637146,88.334007 357.273804,89.345566 354.807587,89.805603 
	C350.447876,90.618820 346.025543,91.096306 341.356140,91.483192 
	C347.816345,89.924957 354.549835,88.597839 361.665100,87.420792 
z"/>
<path fill="#DA2C02" opacity="1.000000" stroke="none" 
	d="
M379.643127,85.392654 
	C374.934967,86.282471 369.823730,87.016479 364.406616,87.521347 
	C369.147125,86.607079 374.193604,85.921967 379.643127,85.392654 
z"/>
<path fill="#DA2C02" opacity="1.000000" stroke="none" 
	d="
M430.673279,84.745514 
	C428.730377,85.089935 426.504089,85.169571 424.132141,84.956955 
	C426.120941,84.603378 428.255432,84.542053 430.673279,84.745514 
z"/>
<path fill="#DA2C02" opacity="1.000000" stroke="none" 
	d="
M338.695496,91.399643 
	C336.879364,92.234856 334.713684,92.947723 332.308716,93.428223 
	C334.161621,92.556335 336.253754,91.916817 338.695496,91.399643 
z"/>
<path fill="#DA2C02" opacity="1.000000" stroke="none" 
	d="
M316.582214,96.998344 
	C315.196075,97.709503 313.443909,98.353134 311.314697,98.950058 
	C312.697174,98.245834 314.456665,97.588326 316.582214,96.998344 
z"/>
<path fill="#DA2C02" opacity="1.000000" stroke="none" 
	d="
M309.588898,99.014191 
	C308.475189,99.702995 307.003571,100.326630 305.166504,100.880997 
	C306.277679,100.190826 307.754333,99.569916 309.588898,99.014191 
z"/>
<path fill="#DA2C02" opacity="1.000000" stroke="none" 
	d="
M321.727722,95.376740 
	C320.911987,95.994148 319.783356,96.497475 318.299805,96.954628 
	C319.101562,96.359856 320.258209,95.811249 321.727722,95.376740 
z"/>
<path fill="#DA2C02" opacity="1.000000" stroke="none" 
	d="
M329.728882,93.383858 
	C328.896759,93.994438 327.751068,94.487640 326.246948,94.923698 
	C327.064087,94.333199 328.239716,93.799835 329.728882,93.383858 
z"/>
<path fill="#DA2C02" opacity="1.000000" stroke="none" 
	d="
M437.536346,85.119202 
	C436.449951,85.367729 434.974243,85.483940 433.278320,85.347183 
	C434.421082,85.058434 435.784058,85.022667 437.536346,85.119202 
z"/>
<path fill="#DA2C02" opacity="1.000000" stroke="none" 
	d="
M531.798096,403.376617 
	C532.210693,403.819275 532.596802,404.605286 532.929260,405.747223 
	C532.507629,405.308746 532.139587,404.514374 531.798096,403.376617 
z"/>
<path fill="#DA2C02" opacity="1.000000" stroke="none" 
	d="
M470.592834,89.102577 
	C470.076538,89.327568 469.218658,89.410728 468.208008,89.244659 
	C468.787231,88.983879 469.519257,88.972313 470.592834,89.102577 
z"/>
<path fill="#DA2C02" opacity="1.000000" stroke="none" 
	d="
M530.896484,400.376038 
	C531.244873,400.606812 531.555786,401.160889 531.789612,402.056641 
	C531.427917,401.832001 531.143433,401.265686 530.896484,400.376038 
z"/>
<path fill="#DA2C02" opacity="1.000000" stroke="none" 
	d="
M528.118042,393.292969 
	C528.347656,393.267914 528.578430,393.493927 528.815796,393.972351 
	C528.588013,393.997803 528.353638,393.770905 528.118042,393.292969 
z"/>
<path fill="#DA2C02" opacity="1.000000" stroke="none" 
	d="
M530.070679,398.298706 
	C530.307739,398.277344 530.550110,398.517212 530.790833,399.024658 
	C530.551453,399.048157 530.313782,398.804047 530.070679,398.298706 
z"/>
<path fill="#374850" opacity="1.000000" stroke="none" 
	d="
M416.626770,482.986389 
	C396.493103,484.243896 380.543091,475.246704 373.063324,458.707336 
	C365.892822,442.851776 369.115326,424.409302 381.228668,411.977386 
	C393.574280,399.307129 412.390137,395.759064 428.657227,403.033813 
	C445.027496,410.354706 454.533722,426.931763 453.068451,445.602325 
	C451.759399,462.282440 439.125244,477.249664 422.450836,481.821259 
	C420.690796,482.303772 418.873627,482.578186 416.626770,482.986389 
z"/>
</svg>